<?xml version="1.0" encoding="UTF-8"?>
<svg width="160" height="160" viewBox="0 0 160 160" fill="none" xmlns="http://www.w3.org/2000/svg" role="img" aria-label="Avatar Médico">
  <rect width="160" height="160" rx="80" fill="url(#grad)"/>
  <defs>
    <linearGradient id="grad" x1="0" y1="0" x2="160" y2="160" gradientUnits="userSpaceOnUse">
      <stop stop-color="#2563eb"/>
      <stop offset="1" stop-color="#1e3a8a"/>
    </linearGradient>
    <clipPath id="clip">
      <circle cx="80" cy="80" r="58" />
    </clipPath>
  </defs>
  <g clip-path="url(#clip)">
    <circle cx="80" cy="64" r="28" fill="#f1c9a5"/>
    <path d="M52 120c4-20 24-26 28-26s24 6 28 26v20H52v-20Z" fill="#ffffff"/>
    <path d="M94 116a10 10 0 0 0-10-10h-8a10 10 0 0 0-10 10v4h28v-4Z" fill="#e2e8f0"/>
    <path d="M74 92h12l2 8-8 4-8-4 2-8Z" fill="#ffffff"/>
    <path d="M60 128c0-10 8-18 18-18s18 8 18 18" stroke="#2563eb" stroke-width="4" stroke-linecap="round"/>
    <path d="M82 110h-4v14h4" stroke="#2563eb" stroke-width="4" stroke-linecap="round" stroke-linejoin="round"/>
    <circle cx="84" cy="124" r="3" fill="#2563eb"/>
    <path d="M52 70c0-18 10-34 28-34s28 16 28 34c0 10-4 14-4 14s-6-4-24-4-24 4-24 4-4-4-4-14Z" fill="#1e3a8a"/>
  </g>
</svg>
